<?xml version="1.0" encoding="UTF-8" standalone="no"?>
<!-- Uploaded to: SVG Repo, www.svgrepo.com, Generator: SVG Repo Mixer Tools -->
<!--COLLECTION: Instructure UI Filled Interface Icons-->
<!--LICENSE: MIT License-->
<!--AUTHOR: instructure-ui-->
<svg
    fill="#a0a0a0"
    width="1000"
    height="1000"
    viewBox="0 0 2400 2400"
    version="1.1"
    id="svg4"
    sodipodi:docname="group.svg"
    inkscape:version="1.1.2 (0a00cf5339, 2022-02-04)"
    xmlns:inkscape="http://www.inkscape.org/namespaces/inkscape"
    xmlns:sodipodi="http://sodipodi.sourceforge.net/DTD/sodipodi-0.dtd"
    xmlns="http://www.w3.org/2000/svg"
>
  <defs
     id="defs8" />
  <sodipodi:namedview
     id="namedview6"
     pagecolor="#505050"
     bordercolor="#eeeeee"
     borderopacity="1"
     inkscape:pageshadow="0"
     inkscape:pageopacity="0"
     inkscape:pagecheckerboard="0"
     showgrid="false"
     inkscape:zoom="0.11320313"
     inkscape:cx="-5733.0573"
     inkscape:cy="-1916.9082"
     inkscape:window-width="3840"
     inkscape:window-height="2100"
     inkscape:window-x="0"
     inkscape:window-y="0"
     inkscape:window-maximized="1"
     inkscape:current-layer="svg4" />
  <path
     d="m 968.61158,579.86956 c 218.24002,0 395.97702,177.624 395.97702,395.976 v 113.13704 c 0,121.96 -56.568,229.78 -143.57,302.526 94.13,13.916 187.354,34.959 278.315,64.6 122.414,39.825 204.664,155.676 204.664,288.159 v 200.364 l -26.814,16.63 c -148.434,92.32 -392.017,202.515 -708.57202,202.515 -174.795,0 -439.76,-35.186 -708.685,-202.514 l -26.7,-16.631 v -189.39 c 0,-140.629 89.264,-263.042 221.973,-304.79 85.418,-26.7 172.533,-46.498 260.327,-59.509 -86.55,-72.746 -142.891,-180.339 -142.891,-301.96 V 975.84556 c 0,-218.352 177.623,-395.976 395.976,-395.976 z m 448.02002,-336.094 c 218.24,0 395.976,177.624 395.976,395.977 v 113.136 c 0,121.96 -56.568,229.893 -143.57,302.52604 94.13,13.916 187.241,35.072 278.316,64.6 122.413,40.051 204.663,155.79 204.663,288.272 v 200.364 l -26.7,16.631 c -77.612,48.31 -181.81,101.03 -308.183,140.742 v -21.723 c 0,-181.696 -113.589,-340.766 -282.727,-395.75 a 1720.133,1720.133 0 0 0 -111.553,-32.244 c 35.751,-69.805 54.871,-147.416 54.871,-227.29 V 975.87956 c 0,-250.483 -182.036,-457.975 -420.414,-500.175 62.678,-136.442 199.572,-231.929 359.32,-231.929 z"
     fill-rule="evenodd"
     id="path2" />
</svg>
