<?xml version="1.0" encoding="UTF-8" standalone="no"?>
<!DOCTYPE svg PUBLIC "-//W3C//DTD SVG 1.1//EN" "http://www.w3.org/Graphics/SVG/1.1/DTD/svg11.dtd">
<svg xmlns="http://www.w3.org/2000/svg" xmlns:xl="http://www.w3.org/1999/xlink" version="1.1" viewBox="293 215 311 313" width="311pt" height="313pt" xmlns:dc="http://purl.org/dc/elements/1.1/"><metadata> Produced by OmniGraffle 6.6.1 <dc:date>2016-08-03 03:28:53 +0000</dc:date></metadata><defs><linearGradient x1="0" x2="1" id="Gradient" gradientUnits="userSpaceOnUse"><stop offset="0" stop-color="#68bc36"/><stop offset="1" stop-color="#d74737"/></linearGradient><linearGradient id="Obj_Gradient" xl:href="#Gradient" gradientTransform="translate(386.69537 276.05686) rotate(57) scale(228.10384)"/></defs><g stroke="none" stroke-opacity="1" stroke-dasharray="none" fill="none" fill-opacity="1"><title>Canvas 3</title><g><title>Layer 1</title><path d="M 390.18956 281.42145 L 396.81032 277.44281 L 403.6921 273.93492 L 410.80143 270.9146 L 418.10386 268.3969 L 425.56372 266.3938 L 433.14525 264.91496 L 440.8112 263.9677 L 448.52447 263.55678 L 456.2477 263.68363 L 463.94345 264.34836 L 471.57387 265.54725 L 479.10252 267.27461 L 486.4926 269.52223 L 493.7083 272.27884 L 500.71447 275.53108 L 507.47706 279.26352 L 513.9634 283.45796 L 520.14187 288.09384 L 525.98228 293.14863 L 531.4569 298.59796 L 536.53845 304.4153 L 541.20273 310.5723 L 545.42677 317.03933 L 549.19027 323.78468 L 552.47498 330.7758 L 555.26466 337.97872 L 557.54604 345.35837 L 559.30803 352.87894 L 560.5421 360.5041 L 561.24198 368.19656 L 561.40467 375.91911 L 561.029 383.63417 L 560.11716 391.3044 L 558.67325 398.8926 L 556.7043 406.36158 L 554.22013 413.67557 L 551.23253 420.79865 L 547.75634 427.69668 L 543.8082 434.33548 L 539.40728 440.68355 L 534.57488 446.70938 L 529.33465 452.3843 L 523.71192 457.68042 L 517.73414 462.5723 L 511.4301 467.03583 L 504.83058 471.04962 L 497.96752 474.59404 L 490.87427 477.6518 L 483.5854 480.20829 L 476.136 482.2511 L 468.56258 483.77008 L 460.90177 484.7578 L 453.1909 485.20986 L 445.4669 485.12376 L 437.76793 484.50002 L 430.13098 483.34154 L 422.59333 481.65402 L 415.19138 479.44593 L 407.96136 476.72745 L 400.938 473.51222 L 394.15567 469.81572 L 387.64725 465.65602 L 381.44432 461.05288 L 375.57704 456.02914 L 370.07372 450.60885 L 364.96122 444.81872 L 360.2644 438.68649 L 356.00612 432.242 L 352.20696 425.5166 L 348.8853 418.54306 L 346.05725 411.3551 L 343.73671 403.98758 L 341.93493 396.47653 L 340.66052 388.858 L 339.91984 381.16945 L 339.71617 373.44767 L 340.05073 365.73076 L 340.92202 358.05585 L 342.32574 350.4603 L 344.255 342.98065 L 346.7004 335.65375 L 349.64997 328.51485 L 353.08956 321.5987 L 357.00234 314.9388 L 361.36975 308.56762 L 366.16994 302.5162 L 371.38 296.81354 L 376.97455 291.48758 L 371.84044 285.70376 L 394.40172 287.9076 L 392.37698 308.83924 L 387.24276 303.05522 L 382.42894 307.63809 L 377.94595 312.54492 L 373.81539 317.75215 L 370.0576 323.23434 L 366.69065 328.9648 L 363.731 334.91596 L 361.19283 341.05878 L 359.08867 347.36336 L 357.42877 353.7991 L 356.22092 360.33483 L 355.4712 366.93886 L 355.1832 373.57923 L 355.35846 380.22336 L 355.99571 386.8392 L 357.09238 393.39466 L 358.64296 399.8577 L 360.6396 406.1971 L 363.07293 412.38216 L 365.931 418.38268 L 369.2002 424.16954 L 372.86444 429.71472 L 376.90574 434.99136 L 381.30495 439.97362 L 386.04015 444.63754 L 391.08885 448.96025 L 396.42628 452.9211 L 402.0265 456.50053 L 407.86244 459.68127 L 413.9059 462.44792 L 420.12714 464.78687 L 426.49616 466.6869 L 432.98218 468.13886 L 439.5534 469.1357 L 446.17805 469.67243 L 452.82409 469.74652 L 459.45933 469.35763 L 466.05117 468.50763 L 472.56786 467.20054 L 478.97767 465.44283 L 485.24957 463.24323 L 491.35304 460.61203 L 497.25836 457.56202 L 502.93707 454.1084 L 508.36153 450.26776 L 513.5052 446.05844 L 518.3434 441.50135 L 522.8525 436.61837 L 527.01048 431.43304 L 530.79718 425.97096 L 534.19447 420.25834 L 537.1858 414.32303 L 539.7563 408.19376 L 541.8939 401.90038 L 543.58816 395.4736 L 544.83056 388.94427 L 545.6153 382.34415 L 545.9384 375.70574 L 545.7985 369.06068 L 545.19638 362.44161 L 544.13455 355.88039 L 542.6183 349.40918 L 540.65526 343.05925 L 538.2548 336.86136 L 535.42845 330.8458 L 532.19004 325.04165 L 528.55547 319.47705 L 524.5419 314.17922 L 520.16946 309.17348 L 515.45876 304.48465 L 510.4333 300.13505 L 505.11697 296.14606 L 499.53557 292.53702 L 493.71657 289.32542 L 487.68802 286.52679 L 481.47932 284.15466 L 475.12037 282.2209 L 468.6423 280.7344 L 462.07632 279.7029 L 455.45453 279.1311 L 448.809 279.0216 L 442.17193 279.37552 L 435.57565 280.1906 L 429.05221 281.4629 L 422.63312 283.18638 L 416.34962 285.35299 L 410.23233 287.95182 L 404.31077 290.97023 L 398.61388 294.39377 Z" fill="url(#Obj_Gradient)"/><path d="M 418 316.5 C 379.5 332.25 369.636 352.0978 370.13596 372.51242 C 370.6359 392.92704 380 414.5 418.5 427.75" stroke="#2d2d2d" stroke-linecap="square" stroke-linejoin="round" stroke-width="15"/><line x1="373.88596" y1="370.57067" x2="419.75" y2="370.57067" stroke="#2d2d2d" stroke-linecap="square" stroke-linejoin="round" stroke-width="15"/><circle cx="493.3125" cy="317.0625" r="9.562515" fill="#d34a37"/><path d="M 443.6875 316.875 C 482.1875 332.625 492.0515 352.4728 491.55154 372.88742 C 491.0516 393.30204 481.6875 414.875 443.1875 428.125" stroke="#2d2d2d" stroke-linecap="square" stroke-linejoin="round" stroke-width="15"/><line x1="448.8125" y1="330.375" x2="448.8125" y2="416.60547" stroke="#2d2d2d" stroke-linecap="square" stroke-linejoin="round" stroke-width="15"/><path d="M 507.75 328.75 C 525 343.5 530.75 360.25 530 377 C 529.25 393.75 520 411 495 426" stroke="#2d2d2d" stroke-linecap="square" stroke-linejoin="round" stroke-width="15"/></g></g></svg>
